<?xml version="1.0" standalone="no"?>
<!DOCTYPE svg PUBLIC "-//W3C//DTD SVG 20010904//EN"
 "http://www.w3.org/TR/2001/REC-SVG-20010904/DTD/svg10.dtd">
<svg version="1.0" xmlns="http://www.w3.org/2000/svg"
 width="877.000000pt" height="877.000000pt" viewBox="0 0 877.000000 877.000000"
 preserveAspectRatio="xMidYMid meet">
<metadata>
Created by potrace 1.14, written by Peter Selinger 2001-2017
</metadata>
<g transform="translate(0.000000,877.000000) scale(0.100000,-0.100000)"
fill="#000000" stroke="none">
<path d="M0 4385 l0 -4385 481 0 481 0 -16 25 c-9 13 -16 31 -16 40 0 8 -4 15
-8 15 -5 0 -15 12 -23 28 -8 15 -22 34 -31 43 -10 9 -18 21 -18 26 0 6 -6 16
-14 22 -8 7 -21 26 -30 44 -9 18 -21 39 -26 47 -132 207 -310 520 -309 544 1
5 -3 12 -8 15 -12 9 -53 99 -53 116 0 8 -9 34 -19 57 -11 24 -25 63 -32 88 -7
25 -16 49 -21 54 -4 6 -8 19 -8 30 0 12 -9 59 -19 106 -11 47 -25 116 -32 153
-14 84 -14 395 0 457 6 25 11 62 11 83 0 20 9 70 20 109 11 40 20 84 20 97 0
25 34 142 51 173 5 10 9 27 9 39 0 24 73 241 94 277 13 24 13 28 -15 152 -63
277 -82 457 -75 710 5 200 18 235 129 331 64 55 113 85 222 138 77 38 165 74
195 81 89 19 133 29 170 36 19 3 118 33 219 65 135 44 238 69 382 94 253 45
268 45 371 -5 102 -48 210 -151 296 -281 31 -48 85 -124 120 -170 74 -98 197
-311 224 -388 14 -38 20 -84 21 -150 1 -92 -1 -99 -36 -168 -73 -143 -203
-274 -481 -483 -197 -148 -335 -293 -389 -408 -27 -57 -30 -74 -34 -205 -6
-178 9 -244 117 -502 23 -55 56 -141 75 -192 18 -50 40 -102 48 -115 8 -13 18
-39 22 -58 4 -19 20 -52 37 -73 16 -21 36 -58 45 -83 18 -54 7 -90 -41 -130
-29 -25 -35 -26 -116 -21 -52 3 -112 15 -155 30 -102 36 -271 124 -315 163
-21 19 -41 34 -46 34 -31 1 -366 368 -415 456 -18 32 -43 69 -55 80 -12 12
-32 41 -44 65 -13 24 -42 76 -67 114 -24 39 -61 98 -82 131 -22 34 -49 90 -62
125 -12 35 -28 71 -34 79 -7 8 -29 51 -49 95 -21 44 -34 67 -31 50 13 -59 0
-224 -14 -194 -4 8 -5 70 -1 139 5 108 3 130 -12 162 -10 21 -33 77 -50 125
-24 66 -34 82 -36 63 -2 -14 -8 -29 -13 -35 -5 -5 -9 -17 -9 -27 0 -10 -4 -18
-10 -18 -5 0 -10 -11 -10 -24 0 -14 -4 -27 -9 -30 -5 -3 -15 -29 -21 -57 -7
-29 -19 -64 -26 -78 -8 -14 -14 -36 -14 -48 0 -12 -9 -42 -20 -68 -11 -26 -20
-64 -20 -84 0 -21 -7 -60 -16 -87 -16 -50 -35 -198 -36 -289 -3 -129 25 -389
44 -409 4 -6 8 -22 8 -38 0 -15 4 -37 9 -50 5 -13 17 -50 27 -83 19 -64 100
-254 115 -269 5 -6 9 -18 9 -28 0 -10 18 -50 40 -89 22 -39 40 -74 40 -77 0
-4 9 -18 20 -32 11 -14 20 -33 20 -42 0 -10 4 -18 9 -18 5 0 16 -16 25 -35 9
-19 21 -37 27 -41 6 -3 14 -16 19 -27 6 -12 21 -40 35 -62 13 -22 32 -53 41
-69 9 -16 36 -54 60 -85 24 -31 44 -62 44 -68 0 -7 3 -13 8 -13 4 0 12 -10 18
-23 20 -44 59 -111 72 -125 6 -7 17 -22 22 -33 10 -17 22 -19 126 -19 l114 0
-41 78 c-22 42 -51 91 -63 107 -12 17 -35 53 -51 80 -16 28 -34 56 -41 63 -7
6 -16 22 -20 34 -5 18 -74 118 -94 138 -3 3 -6 12 -8 20 -5 28 -65 145 -84
163 -19 18 -25 67 -9 67 5 0 20 -15 32 -33 13 -17 27 -33 31 -35 4 -2 8 -10 8
-17 0 -8 9 -17 20 -20 11 -3 20 -13 20 -20 0 -8 9 -19 20 -25 11 -6 20 -16 20
-22 0 -6 18 -35 40 -64 22 -29 40 -57 40 -63 0 -5 4 -11 8 -13 8 -3 72 -95 72
-104 0 -3 8 -13 18 -24 9 -10 37 -57 62 -104 25 -47 48 -86 51 -86 4 0 14 -17
24 -38 9 -20 22 -47 28 -59 l12 -23 902 0 c796 0 903 2 903 15 0 8 5 15 10 15
6 0 10 -7 10 -15 0 -13 38 -15 280 -15 l281 0 -3 148 -3 147 -70 8 c-142 16
-397 79 -490 120 -99 44 -123 64 -194 161 -76 105 -85 127 -117 274 -13 64
-31 146 -40 182 -8 36 -19 139 -24 230 -5 91 -14 226 -20 300 -16 197 1 500
36 645 28 115 56 190 83 225 15 19 34 46 41 60 35 66 276 322 330 349 49 25
134 44 162 36 42 -13 152 -82 191 -120 21 -20 52 -68 69 -106 17 -38 34 -69
38 -69 13 0 -1 664 -14 673 -6 4 -22 9 -36 12 -416 82 -741 294 -983 641 -69
100 -158 296 -206 454 -44 146 -60 460 -32 620 44 255 134 471 273 657 283
378 689 595 1163 620 258 13 573 -64 800 -195 121 -70 212 -141 322 -249 379
-375 530 -928 394 -1448 -146 -555 -590 -977 -1154 -1096 -32 -7 -60 -16 -64
-21 -8 -15 -16 -576 -8 -627 l8 -46 23 50 c12 28 23 70 23 96 1 62 67 198 112
229 26 19 49 25 114 28 75 4 96 0 226 -38 79 -24 223 -72 319 -108 l175 -65
185 -186 185 -186 92 -177 c124 -240 164 -342 228 -583 23 -86 37 -313 24
-400 -14 -100 -33 -152 -96 -257 -131 -217 -369 -495 -488 -570 -22 -14 -58
-28 -80 -32 -43 -7 -238 -48 -350 -74 -38 -8 -101 -17 -140 -19 -38 -2 -110
-7 -159 -13 -50 -6 -113 -10 -140 -9 -28 0 -99 -2 -159 -6 l-107 -8 0 -76 c0
-42 3 -100 6 -128 l7 -53 992 0 993 0 4 198 c1 108 1 462 -2 787 -4 420 -2
595 6 610 29 53 188 309 239 385 l57 84 -18 61 c-26 92 -114 261 -181 350 -77
101 -154 173 -298 277 -61 44 -224 138 -239 138 -6 0 -36 13 -66 29 -30 16
-71 32 -90 36 -19 4 -53 16 -75 25 -22 10 -56 23 -75 29 -19 6 -63 20 -98 31
-34 11 -70 20 -80 20 -35 1 -157 48 -160 61 -1 8 21 32 50 54 95 70 331 315
391 405 32 47 82 119 112 160 31 41 61 89 69 105 7 17 34 67 59 112 25 45 53
106 62 135 10 29 35 88 57 131 97 196 115 362 67 635 -6 35 -9 65 -7 66 3 1
189 66 308 107 30 10 66 25 80 33 14 7 43 19 65 26 22 7 51 21 64 31 13 11 33
19 45 19 12 0 38 9 59 20 21 11 68 32 105 46 37 14 86 36 109 49 23 14 47 25
55 25 7 0 35 11 63 25 110 53 160 75 174 75 8 0 59 23 113 50 54 28 106 50
115 50 9 0 37 10 62 22 27 13 72 24 106 26 58 4 62 3 114 -38 71 -57 105 -138
125 -305 2 -16 9 -55 15 -85 6 -31 11 -67 11 -80 0 -14 4 -52 11 -85 14 -79
23 -173 22 -240 -1 -32 5 -152 11 -226 2 -25 0 -69 -6 -98 -5 -29 -6 -61 -3
-70 6 -15 46 61 173 329 97 205 206 423 224 445 22 28 53 33 61 11 5 -13 11
-2692 8 -3313 -2 -241 -1 -252 18 -262 21 -11 250 -4 270 9 7 4 4 20 -9 48
-11 22 -20 43 -20 46 0 3 13 12 29 21 28 14 29 17 19 46 -8 24 -8 37 1 51 10
16 9 23 -3 37 -20 22 -20 41 -1 111 14 52 14 57 -5 82 -24 32 -26 86 -5 114
20 26 19 50 -6 93 l-21 37 21 62 c25 74 26 91 5 121 -12 16 -15 37 -12 73 3
28 1 66 -5 85 -8 25 -8 40 1 54 15 24 15 48 -2 78 -10 18 -11 33 -4 55 5 17
11 68 13 114 3 46 7 87 10 91 2 5 -1 22 -7 39 -10 27 -10 37 5 61 22 38 22 50
-8 92 -21 32 -22 39 -10 55 20 26 18 64 -5 94 -19 25 -19 25 6 57 29 38 29 41
4 73 -26 33 -25 53 5 88 14 17 25 33 25 37 0 4 -14 23 -30 42 -27 30 -29 38
-23 76 5 23 8 60 7 82 0 22 3 43 8 46 11 7 27 108 19 113 -8 5 -4 179 4 221 5
23 2 35 -14 49 -26 23 -26 35 -3 76 l17 31 -38 32 c-20 18 -37 38 -37 44 0 7
18 25 40 39 49 33 52 62 10 86 -33 19 -38 42 -15 72 8 11 12 29 9 42 -3 12 2
39 11 58 15 32 16 39 3 54 -23 27 -68 122 -68 143 0 28 25 23 50 -8 12 -16 43
-50 68 -78 47 -50 103 -116 155 -183 l27 -36 0 2117 0 2117 -4385 0 -4385 0 0
-4385z m4420 4071 c74 -2 154 -8 177 -15 23 -6 65 -11 95 -10 62 3 117 -5 213
-31 55 -15 457 -100 472 -100 16 0 -8 -43 -58 -103 -33 -39 -67 -87 -75 -105
-7 -18 -22 -45 -32 -60 -11 -15 -25 -45 -31 -67 -7 -22 -16 -49 -20 -60 -5
-11 -13 -31 -18 -45 -17 -43 -31 -93 -38 -140 l-7 -45 58 55 c33 31 77 69 99
85 22 17 42 33 45 37 3 3 41 24 85 46 87 43 149 64 265 86 41 9 86 18 100 22
14 4 77 8 140 9 156 4 381 -35 410 -70 7 -8 17 -15 23 -15 5 0 28 -8 51 -19
23 -10 52 -24 66 -30 14 -6 48 -24 75 -40 28 -16 57 -30 66 -30 9 -1 22 -7 28
-15 7 -8 26 -18 42 -21 16 -4 32 -12 36 -18 5 -7 20 -18 36 -24 15 -7 27 -17
27 -23 0 -5 8 -10 18 -10 9 0 28 -9 42 -20 14 -11 32 -20 41 -20 9 0 19 -7 23
-15 3 -8 12 -15 20 -15 8 0 47 -21 88 -47 109 -71 111 -72 140 -84 14 -6 29
-17 32 -25 3 -8 11 -14 18 -14 7 -1 29 -14 48 -30 19 -17 38 -30 43 -30 7 0
66 -38 77 -51 3 -3 23 -16 45 -29 22 -13 42 -26 45 -29 12 -14 70 -51 79 -51
6 0 14 -6 18 -13 4 -8 22 -22 38 -32 17 -10 42 -29 56 -42 14 -13 44 -36 66
-51 65 -43 244 -182 293 -227 25 -22 81 -68 126 -102 92 -70 170 -140 163
-147 -7 -7 -77 18 -91 32 -7 7 -16 12 -21 12 -4 0 -47 18 -95 41 -48 22 -100
46 -117 54 -42 20 -141 54 -196 68 -25 7 -54 18 -63 26 -10 8 -39 18 -64 21
-40 6 -161 29 -367 71 -75 15 -290 17 -378 3 -267 -42 -467 -127 -631 -268
-108 -93 -232 -239 -298 -351 -22 -38 -53 -90 -67 -115 -15 -25 -38 -72 -51
-105 -13 -33 -31 -71 -40 -85 -9 -14 -25 -47 -34 -75 -10 -27 -28 -80 -41
-116 -13 -37 -28 -75 -34 -85 -5 -11 -17 -40 -27 -66 -9 -27 -21 -48 -25 -48
-5 0 -20 17 -34 38 -85 128 -191 262 -319 399 -58 63 -67 78 -62 101 3 15 12
65 20 111 9 46 20 98 25 115 5 17 13 49 17 71 8 46 7 41 27 120 28 112 48 179
56 189 4 6 25 61 46 121 21 61 45 121 55 135 9 14 25 43 35 65 18 41 101 169
158 242 17 24 56 61 85 84 29 22 57 49 62 60 9 16 8 17 -19 8 -17 -6 -54 -28
-83 -49 -29 -22 -77 -56 -106 -76 -29 -20 -61 -48 -70 -62 -9 -14 -38 -48 -64
-75 -27 -28 -48 -54 -48 -59 0 -4 -9 -15 -19 -25 -10 -10 -33 -45 -51 -78 -18
-33 -40 -69 -50 -80 -16 -18 -41 -68 -85 -170 -40 -92 -116 -297 -126 -340
-25 -103 -41 -155 -49 -160 -5 -3 -28 8 -52 25 -109 77 -149 102 -225 140 -95
49 -99 55 -108 188 -4 51 -13 116 -21 143 -8 28 -19 91 -24 142 -5 51 -19 142
-31 202 -12 61 -21 123 -20 139 0 16 -8 70 -19 120 -11 49 -20 120 -20 156 0
40 -8 88 -20 123 -11 31 -20 77 -20 101 0 48 -16 71 -24 34 -20 -93 -29 -707
-13 -858 12 -114 10 -320 -3 -333 -4 -5 -39 -3 -76 3 -95 18 -274 23 -364 12
-87 -11 -100 -5 -100 45 0 19 -6 46 -14 61 -8 15 -17 50 -21 77 -4 28 -13 61
-20 75 -8 14 -16 44 -20 65 -10 53 -52 184 -70 217 -8 14 -15 37 -15 49 0 13
-9 46 -19 74 -11 27 -26 73 -35 100 -9 28 -30 88 -47 135 -17 47 -35 103 -41
125 -6 22 -17 49 -25 60 -7 11 -13 28 -13 38 0 31 -30 119 -61 178 -16 32 -29
72 -29 92 0 19 -6 48 -14 64 -27 53 -36 100 -36 176 0 63 3 78 18 85 17 9 89
25 94 21 2 -1 13 3 26 10 12 7 57 14 100 17 42 2 88 8 102 13 14 5 34 9 45 9
92 2 289 13 292 16 2 2 47 2 101 0 53 -2 158 -6 232 -8z m-2170 -213 c0 -17
-27 -53 -41 -53 -6 0 -4 23 7 58 5 18 34 15 34 -5z m679 -301 c99 -29 188
-119 277 -282 25 -47 54 -94 64 -105 19 -21 85 -138 121 -212 11 -24 24 -43
29 -43 6 0 10 -8 10 -19 0 -10 11 -38 24 -62 13 -24 38 -90 56 -147 29 -96 30
-107 22 -185 -10 -88 -30 -135 -107 -252 -11 -16 -31 -39 -45 -50 -14 -11 -32
-27 -40 -35 -16 -15 -101 -79 -155 -116 -16 -11 -68 -47 -115 -79 -47 -32
-128 -98 -181 -147 -127 -116 -182 -197 -335 -481 -108 -201 -185 -274 -334
-312 -78 -21 -340 -34 -425 -21 -53 7 -188 49 -340 104 -161 58 -280 170 -381
359 -26 48 -60 106 -74 128 -72 109 -120 253 -120 365 0 128 48 311 107 408
42 70 49 81 89 152 80 139 346 434 498 553 16 12 55 43 86 70 32 26 60 47 63
47 3 0 35 22 70 48 35 27 110 74 168 106 57 31 111 61 119 66 8 5 47 21 85 35
39 14 89 35 113 45 23 11 51 20 61 20 10 0 38 7 62 16 49 18 128 31 234 40 38
3 71 7 73 9 9 8 173 -8 221 -23z m4746 -1850 c6 -4 10 -14 10 -22 0 -10 8 -14
23 -13 44 5 18 -83 -31 -100 -27 -10 -87 48 -87 84 0 38 57 72 85 51z m-2
-216 c15 -32 16 -43 6 -67 -19 -47 -52 -48 -91 -3 -39 45 -41 55 -9 70 13 7
28 20 34 29 14 26 40 13 60 -29z m-6863 -4826 c0 -5 -4 -10 -10 -10 -5 0 -10
5 -10 10 0 6 5 10 10 10 6 0 10 -4 10 -10z m30 -51 c0 -5 -7 -6 -15 -3 -8 4
-15 13 -15 21 0 13 3 13 15 3 8 -7 15 -16 15 -21z m130 -185 c0 -8 -4 -12 -10
-9 -5 3 -10 10 -10 16 0 5 5 9 10 9 6 0 10 -7 10 -16z m114 -165 c-8 -13 -24
-1 -24 18 0 13 3 13 15 3 8 -7 12 -16 9 -21z m69 -83 c4 -10 1 -13 -9 -9 -15
6 -19 23 -5 23 5 0 11 -7 14 -14z m212 -292 c29 -38 38 -64 19 -57 -7 3 -14
11 -14 17 0 7 -9 22 -20 34 -21 22 -25 32 -12 32 4 0 16 -12 27 -26z m1820
-112 c5 -12 13 -22 17 -22 5 0 8 -13 8 -30 0 -16 5 -30 10 -30 6 0 10 -7 10
-15 0 -22 -14 -18 -25 8 -6 12 -20 23 -32 25 -20 3 -23 9 -23 49 0 48 17 55
35 15z m-1711 -58 c9 -24 7 -27 -9 -10 -17 17 -19 26 -6 26 5 0 12 -7 15 -16z
m36 -54 c0 -5 -4 -10 -10 -10 -5 0 -10 5 -10 10 0 6 5 10 10 10 6 0 10 -4 10
-10z m1735 -30 c3 -5 1 -10 -4 -10 -6 0 -11 5 -11 10 0 6 2 10 4 10 3 0 8 -4
11 -10z"/>
<path d="M1944 7267 c-28 -11 -52 -26 -105 -69 -29 -24 -82 -107 -76 -121 3
-7 36 -25 75 -39 39 -14 80 -36 91 -47 13 -13 34 -21 54 -21 18 0 51 -9 72
-20 26 -14 55 -20 82 -18 31 1 46 -3 55 -15 13 -17 53 -41 154 -91 57 -29 162
-145 208 -231 34 -62 59 -85 87 -78 12 4 49 31 82 63 l60 56 -12 51 c-14 59
-109 195 -167 240 -20 15 -54 43 -77 61 -41 33 -117 79 -270 160 -45 23 -93
50 -107 59 -93 62 -155 80 -206 60z m400 -413 c5 -14 4 -15 -9 -4 -17 14 -19
20 -6 20 5 0 12 -7 15 -16z m131 -74 c3 -5 1 -10 -4 -10 -6 0 -11 5 -11 10 0
6 2 10 4 10 3 0 8 -4 11 -10z"/>
<path d="M7630 5870 c0 -5 5 -10 10 -10 6 0 10 5 10 10 0 6 -4 10 -10 10 -5 0
-10 -4 -10 -10z"/>
<path d="M3810 6175 c-8 -2 -49 -9 -90 -15 -154 -25 -398 -123 -530 -214 -163
-111 -321 -275 -420 -435 -98 -157 -138 -268 -200 -543 -16 -73 -7 -375 14
-473 66 -302 190 -533 395 -734 195 -192 438 -323 701 -379 25 -5 54 -13 64
-17 18 -8 19 -4 13 71 -8 105 2 178 26 182 10 2 17 -3 17 -12 0 -8 9 -18 20
-21 11 -4 26 -21 34 -38 7 -18 26 -39 42 -47 16 -8 37 -21 47 -29 9 -8 17 -11
17 -7 0 4 14 -4 31 -18 37 -31 45 -32 59 -7 7 15 4 32 -15 72 -28 62 -24 69
48 69 35 0 47 4 47 15 0 18 41 20 58 3 8 -8 12 -49 12 -120 0 -69 4 -108 11
-108 44 0 264 69 362 114 120 54 276 160 385 261 122 112 286 366 347 537 186
521 61 1082 -329 1482 -73 74 -250 216 -271 216 -2 0 -26 12 -52 28 -68 39
-237 108 -308 126 -133 33 -243 46 -380 45 -77 -1 -147 -3 -155 -4z m267
-1020 c37 -14 83 -38 102 -55 20 -16 57 -45 84 -62 47 -33 63 -70 35 -81 -10
-4 -10 -8 1 -15 23 -16 53 -120 41 -142 -15 -28 -12 -70 5 -77 16 -5 45 -53
45 -73 0 -5 -4 -10 -10 -10 -5 0 -10 9 -10 20 0 13 -7 20 -20 20 -14 0 -20 -7
-20 -21 0 -12 -7 -27 -16 -34 -15 -10 -15 -15 -1 -46 25 -57 26 -67 10 -81 -9
-7 -22 -28 -30 -45 -7 -18 -18 -33 -23 -33 -6 0 -10 -11 -10 -25 0 -27 -2 -27
-65 -26 -22 1 -53 -2 -70 -7 -30 -8 -31 -10 -34 -76 -1 -16 -6 -17 -33 -11
-18 4 -68 7 -110 6 -69 -2 -78 0 -88 19 -7 14 -17 19 -29 15 -12 -3 -22 3 -31
20 -13 25 -44 33 -55 15 -8 -12 -45 -13 -45 -1 0 4 10 21 22 36 l22 28 -41 38
c-23 21 -43 46 -45 55 -2 10 -17 21 -35 26 -41 11 -47 21 -30 55 8 16 14 68
16 121 l2 92 -30 0 c-39 0 -49 17 -17 29 28 11 41 41 31 78 -5 20 -8 23 -20
13 -12 -10 -18 -10 -30 0 -8 7 -15 16 -15 21 0 13 88 61 100 54 11 -7 49 32
50 51 0 18 37 48 108 85 12 7 22 18 22 25 0 18 13 20 112 22 70 1 101 -4 155
-23z m264 -52 c7 -12 10 -25 8 -27 -3 -3 -30 -2 -61 1 l-57 6 17 23 c23 31 75
30 93 -3z m39 -39 c0 -8 -4 -12 -10 -9 -5 3 -10 13 -10 21 0 8 5 12 10 9 6 -3
10 -13 10 -21z m70 -245 c0 -11 -4 -17 -10 -14 -5 3 -10 15 -10 26 0 11 5 17
10 14 6 -3 10 -15 10 -26z m-945 -119 c3 -5 -1 -10 -9 -10 -9 0 -16 5 -16 10
0 6 4 10 9 10 6 0 13 -4 16 -10z m60 -21 c4 -6 5 -12 2 -15 -7 -7 -37 7 -37
17 0 13 27 11 35 -2z m186 -378 c13 -10 34 -21 47 -25 30 -10 13 -33 -24 -33
-29 0 -44 -17 -44 -50 0 -13 -4 -23 -10 -23 -5 0 -10 5 -10 10 0 6 -7 10 -15
10 -22 0 -38 38 -29 68 4 15 8 32 8 37 2 29 44 32 77 6z m72 -8 c-7 -2 -19 -2
-25 0 -7 3 -2 5 12 5 14 0 19 -2 13 -5z m263 -152 c-8 -13 -66 -15 -66 -3 0
12 54 30 64 21 4 -4 5 -12 2 -18z m-266 9 c0 -5 -8 -10 -17 -10 -15 0 -16 2
-3 10 19 12 20 12 20 0z m1231 -160 c12 -7 19 -21 19 -39 0 -37 -61 -101 -97
-101 -33 0 -63 26 -63 55 0 24 43 69 80 84 33 13 38 13 61 1z"/>
<path d="M4211 4527 c-8 -11 -5 -13 19 -9 16 2 27 8 24 13 -8 13 -30 11 -43
-4z"/>
<path d="M7355 5410 c-3 -6 1 -7 9 -4 18 7 21 14 7 14 -6 0 -13 -4 -16 -10z"/>
<path d="M6884 4481 c-2 -3 -59 -8 -127 -13 -237 -15 -343 -26 -432 -42 -158
-29 -148 -24 -162 -94 -7 -34 -19 -75 -28 -91 -20 -40 -19 -55 3 -45 57 25
160 54 191 54 20 0 56 6 81 14 25 8 72 22 105 32 33 9 78 23 100 30 23 8 54
14 70 14 16 0 65 11 109 24 45 13 109 26 143 30 34 3 90 17 125 30 35 14 80
28 101 31 21 3 37 11 35 16 -3 10 -304 20 -314 10z"/>
<path d="M7090 3815 c0 -3 41 -45 90 -92 80 -75 150 -160 150 -181 0 -4 11
-20 24 -37 l24 -29 37 74 c21 41 53 98 71 126 19 28 34 54 34 57 0 3 -17 5
-37 5 -21 -1 -69 9 -108 21 -118 38 -285 70 -285 56z"/>
<path d="M5902 3692 c-6 -21 -26 -59 -43 -86 -18 -26 -28 -51 -23 -55 5 -4 70
-15 144 -25 139 -17 156 -21 275 -55 39 -11 99 -28 135 -38 36 -9 86 -28 112
-40 27 -13 52 -23 57 -23 14 0 133 -63 192 -103 31 -20 60 -37 65 -37 5 0 34
-25 64 -56 64 -64 93 -84 83 -57 -18 52 -168 220 -243 274 -121 86 -172 119
-183 120 -7 0 -39 16 -72 34 -87 49 -143 74 -184 85 -20 5 -103 29 -186 54
-82 25 -157 46 -166 46 -10 0 -20 -14 -27 -38z"/>
<path d="M1985 3491 c-145 -51 -151 -54 -215 -100 -30 -22 -71 -49 -91 -60
-35 -19 -134 -110 -359 -330 -58 -56 -131 -128 -163 -159 -75 -72 -90 -107
-84 -194 2 -37 9 -73 15 -80 5 -7 15 -32 22 -54 7 -23 22 -53 34 -67 11 -14
34 -42 49 -61 39 -51 66 -48 114 12 21 26 64 72 95 103 32 31 67 76 78 100 11
24 33 57 50 73 16 16 41 52 55 80 25 50 45 73 147 171 29 28 75 73 103 100 77
78 265 161 407 180 26 3 59 16 73 27 25 19 27 26 22 67 -6 53 -67 175 -104
209 -38 35 -114 30 -248 -17z"/>
<path d="M3961 3383 c-19 -16 -21 -22 -10 -50 8 -26 17 -33 37 -33 20 0 23 -3
14 -12 -9 -9 -18 -8 -37 2 -21 11 -28 12 -34 1 -6 -10 -10 -9 -15 5 -5 13 -10
14 -18 6 -20 -20 36 -62 84 -62 34 0 40 3 36 18 -3 10 5 31 18 47 19 23 26 27
36 17 20 -20 38 -14 36 12 -1 15 -8 23 -18 21 -8 -1 -31 9 -50 21 -41 29 -51
29 -79 7z"/>
<path d="M4013 3183 c-7 -3 -13 -16 -13 -29 0 -22 4 -25 27 -22 16 2 29 10 31
20 4 18 -26 38 -45 31z"/>
<path d="M3922 3090 c-6 -11 -12 -30 -12 -43 0 -15 -11 -29 -30 -40 -34 -21
-45 -52 -36 -102 7 -37 36 -61 53 -44 6 6 14 5 23 -6 7 -8 21 -15 31 -15 11 0
19 -6 19 -13 0 -8 8 -21 18 -30 15 -14 21 -14 42 -3 14 7 24 19 22 27 -6 25
-52 118 -62 124 -18 11 -10 25 30 50 46 29 49 37 16 54 -13 7 -29 24 -35 37
-14 31 -61 33 -79 4z"/>
<path d="M1925 2801 c-56 -37 -73 -56 -110 -125 -20 -39 -45 -76 -56 -84 -10
-7 -19 -20 -19 -28 0 -25 48 18 89 79 19 29 57 80 84 115 27 34 47 62 45 62
-1 0 -16 -9 -33 -19z"/>
<path d="M3947 2732 c-25 -28 -9 -76 28 -82 l29 -5 -28 -22 c-22 -18 -27 -28
-22 -48 4 -14 13 -25 21 -25 19 0 120 116 121 140 1 11 -2 18 -6 15 -3 -2 -28
7 -55 20 -58 30 -67 30 -88 7z"/>
<path d="M3860 2509 c0 -5 5 -7 10 -4 6 3 10 8 10 11 0 2 -4 4 -10 4 -5 0 -10
-5 -10 -11z"/>
<path d="M3960 2496 c-25 -13 -47 -23 -50 -22 -3 0 -19 -9 -35 -22 -29 -21
-29 -22 -11 -37 21 -16 61 -21 52 -7 -2 4 -1 14 5 22 7 13 9 12 9 -2 0 -22 8
-22 53 -3 39 16 58 59 35 81 -11 12 -21 10 -58 -10z"/>
<path d="M3730 2270 c-21 -62 -21 -351 0 -435 l15 -60 3 138 c1 76 1 198 0
270 l-3 132 -15 -45z"/>
<path d="M3888 2248 c-6 -16 44 -88 57 -84 6 1 11 14 13 28 2 19 -5 31 -26 47
-35 24 -39 25 -44 9z"/>
<path d="M3891 2106 c-12 -14 -11 -20 6 -39 29 -32 36 -58 19 -71 -7 -6 -16
-26 -20 -44 -5 -30 -4 -33 14 -27 11 3 36 0 57 -7 29 -10 37 -10 40 0 3 6 11
12 19 12 8 0 14 9 14 21 0 11 4 29 10 39 13 25 3 50 -21 50 -16 0 -19 7 -19
41 l0 42 -37 -6 c-20 -4 -41 -14 -47 -24 -9 -16 -10 -16 -16 6 -5 22 -7 22
-19 7z"/>
<path d="M4400 1792 c0 -43 44 -121 96 -172 25 -24 54 -61 65 -82 11 -21 23
-38 28 -38 18 0 -3 46 -46 104 -25 32 -47 66 -51 75 -3 9 -21 37 -39 62 -18
26 -33 51 -33 57 0 6 -4 14 -10 17 -6 4 -10 -6 -10 -23z"/>
<path d="M3935 1748 c-12 -36 -9 -71 8 -82 26 -17 40 10 20 41 -12 19 -13 26
-3 38 10 12 9 15 -4 15 -9 0 -19 -6 -21 -12z"/>
<path d="M4190 1262 l0 -403 38 -16 c23 -10 73 -17 129 -19 80 -3 103 1 175
25 60 21 87 36 97 53 15 26 16 24 -76 176 -13 20 -28 55 -34 76 -7 25 -27 55
-54 80 -24 23 -53 61 -65 86 -13 24 -44 66 -71 93 -26 26 -53 65 -60 85 -6 20
-18 44 -26 53 -8 9 -23 39 -33 65 l-19 49 -1 -403z"/>
<path d="M3925 1601 c-42 -9 -47 -41 -6 -41 39 0 40 -16 2 -25 -23 -5 -28 -10
-23 -23 8 -22 33 -48 52 -54 8 -2 15 -15 15 -29 0 -19 7 -26 37 -33 45 -11 57
-3 39 25 -10 18 -10 24 4 39 25 27 15 55 -17 53 -25 -2 -27 1 -30 45 -3 51
-12 57 -73 43z"/>
<path d="M4026 1198 c-5 -18 -8 -20 -15 -9 -14 22 -33 4 -21 -20 6 -11 16 -17
21 -13 6 3 13 -3 16 -15 3 -12 13 -21 24 -21 18 0 19 1 3 25 -10 16 -14 34
-10 50 8 31 -9 34 -18 3z"/>
<path d="M3935 199 c-12 -6 -26 -19 -33 -30 -11 -17 -9 -19 20 -19 51 0 63
-13 60 -63 -1 -35 3 -47 16 -52 18 -7 52 26 52 50 0 30 -21 66 -45 77 -13 6
-27 19 -30 30 -7 20 -11 21 -40 7z"/>
</g>
</svg>
